<?xml version="1.0" encoding="UTF-8"?>
<svg width="180px" height="42px" viewBox="0 0 180 42" version="1.1" xmlns="http://www.w3.org/2000/svg" xmlns:xlink="http://www.w3.org/1999/xlink">
    <!-- Generator: Sketch 42 (36781) - http://www.bohemiancoding.com/sketch -->
    <title>logo</title>
    <desc>Created with Sketch.</desc>
    <defs></defs>
    <g id="Page-1" stroke="none" stroke-width="1" fill="none" fill-rule="evenodd">
        <g id="logo" fill="#939BA2">
            <path d="M59.3880538,18.6824664 L56.2513722,18.6824664 L56.2513722,13.6537668 L59.3880538,13.6537668 L59.3880538,12.5083857 C59.3880538,4.19286996 66.2094888,3.09753363 69.7449148,3.09753363 C71.0396233,3.09753363 71.8855426,3.24686099 71.8855426,3.24686099 L71.8855426,8.62426009 C71.8855426,8.62426009 71.338278,8.52497758 70.5916413,8.52497758 C68.7989058,8.52497758 65.7114619,8.97376682 65.7114619,12.657713 L65.7114619,13.6537668 L71.1389058,13.6537668 L71.1389058,18.6824664 L65.7114619,18.6824664 L65.7114619,38.6487444 L59.3880538,38.6487444 L59.3880538,18.6824664 Z" id="Fill-1"></path>
            <path d="M77.6614439,3.29730942 L83.9348072,3.29730942 L83.9348072,29.7855605 C83.9348072,32.5743498 84.8816233,33.2717489 86.5242242,33.2717489 C87.0222511,33.2717489 87.4702332,33.221704 87.4702332,33.221704 L87.4702332,38.7484305 C87.4702332,38.7484305 86.5242242,38.8977578 85.4789327,38.8977578 C81.9935516,38.8977578 77.6614439,38.0017937 77.6614439,30.7315695 L77.6614439,3.29730942 Z" id="Fill-3"></path>
            <path d="M92.1511211,38.649148 L98.4745291,38.649148 L98.4745291,13.255426 L92.1511211,13.255426 L92.1511211,38.649148 Z M92.1511211,8.92331839 L98.4244843,8.92331839 L98.4244843,3.29730942 L92.1511211,3.29730942 L92.1511211,8.92331839 Z" id="Fill-5"></path>
            <path d="M105.445857,13.2553453 L111.519848,13.2553453 L111.519848,16.1934619 C111.519848,17.1394709 111.420565,17.9353453 111.420565,17.9353453 L111.519848,17.9353453 C112.615991,15.7947175 115.403973,12.6580359 120.532762,12.6580359 C126.159578,12.6580359 129.345498,15.5953453 129.345498,22.3174978 L129.345498,38.6490673 L123.072135,38.6490673 L123.072135,23.6113991 C123.072135,20.5247623 122.27626,18.4333722 119.038682,18.4333722 C115.65339,18.4333722 113.164063,20.5748072 112.218054,23.6113991 C111.869354,24.6574978 111.769265,25.8028789 111.769265,26.9974978 L111.769265,38.6490673 L105.445857,38.6490673 L105.445857,13.2553453 Z" id="Fill-7"></path>
            <path d="M146.922377,33.9186996 C150.209193,33.9186996 153.29583,31.5286547 153.29583,25.9018386 C153.29583,21.9684753 151.205247,18.085157 146.972422,18.085157 C143.48704,18.085157 140.599776,20.9231839 140.599776,25.9518834 C140.599776,30.7820179 143.188386,33.9186996 146.922377,33.9186996 M145.728565,12.657713 C151.304529,12.657713 153.04722,15.8944843 153.04722,15.8944843 L153.146502,15.8944843 C153.146502,15.8944843 153.096457,15.24713 153.096457,14.4504484 L153.096457,3.29690583 L159.419865,3.29690583 L159.419865,38.6487444 L153.445157,38.6487444 L153.445157,36.5581614 C153.445157,35.6121525 153.545247,34.9139462 153.545247,34.9139462 L153.445157,34.9139462 C153.445157,34.9139462 151.304529,39.246861 145.479148,39.246861 C138.607668,39.246861 134.226323,33.819417 134.226323,25.9518834 C134.226323,17.8857848 139.005605,12.657713 145.728565,12.657713" id="Fill-8"></path>
            <path d="M167.487175,18.6824664 L164.201166,18.6824664 L164.201166,13.6537668 L167.637309,13.6537668 L167.637309,6.33430493 L173.81139,6.33430493 L173.81139,13.6537668 L179.586726,13.6537668 L179.586726,18.6824664 L173.81139,18.6824664 L173.81139,28.5413004 C173.81139,32.7240807 177.096592,33.3213901 178.839283,33.3213901 C179.537489,33.3213901 179.984664,33.2221076 179.984664,33.2221076 L179.984664,38.7480269 C179.984664,38.7480269 179.238834,38.8981614 178.042601,38.8981614 C174.507982,38.8981614 167.487175,37.8520628 167.487175,29.3379821 L167.487175,18.6824664 Z" id="Fill-9"></path>
            <path d="M11.0856592,37.7850673 L12.884852,28.3201345 L18.824852,27.2207623 L25.2071839,37.0150224 C20.9259283,39.6682063 15.5743587,39.9256951 11.0856592,37.7850673 L11.0856592,37.7850673 Z M3.27947085,20.4178924 L10.5472735,27.6856951 L8.87480717,36.4814798 C8.22503139,36.0165471 7.60269955,35.4943049 7.01830493,34.9107175 C3.1010852,30.9934978 1.85642152,25.4013901 3.27947085,20.4178924 L3.27947085,20.4178924 Z M38.8032377,3.12578475 C38.735435,6.7596861 38.2543587,14.2123318 35.7101435,21.65287 L33.1005471,19.0432735 L33.2103229,3.47044843 C35.4825202,3.23556054 37.4197399,3.15080717 38.8032377,3.12578475 L38.8032377,3.12578475 Z M22.1843139,14.7878475 L29.0872735,4.20578475 L28.8685291,4.06372197 C29.5239552,3.95152466 30.1680807,3.85143498 30.7936413,3.76426009 L30.6870942,18.796278 L20.9170493,23.7604036 L22.1843139,14.7878475 Z M20.3923857,13.114574 L8.66009865,12.5592377 C13.8478117,8.17547085 20.4658386,5.86210762 25.9183049,4.64327354 L20.3923857,13.114574 Z M12.2576771,25.9809417 L4.23113004,17.9552018 C4.77355157,16.8550224 5.46126457,15.8097309 6.29426906,14.8483857 L6.29346188,14.8645291 L19.6449417,15.4965471 L18.3227892,24.8573543 L12.2576771,25.9809417 Z M27.1516682,35.5750224 L21.1430583,26.3546637 L31.6548969,21.0135874 L34.7786637,24.1373543 C33.1820717,28.0384305 30.9591121,31.8176233 27.8660179,34.9107175 C27.6343587,35.1431839 27.3946278,35.3619283 27.1516682,35.5750224 L27.1516682,35.5750224 Z M41.2037758,0.726053812 C41.2037758,0.726053812 18.0741794,-0.407219731 5.31113004,12.3558296 C-1.3892287,19.0561883 -1.3892287,29.919148 5.31113004,36.6186996 C12.0106816,43.3182511 22.8736413,43.3182511 29.574,36.6186996 C42.3370493,23.8556502 41.2037758,0.726053812 41.2037758,0.726053812 L41.2037758,0.726053812 Z" id="Fill-10"></path>
        </g>
    </g>
</svg>