<svg width="180" height="42" viewBox="0 0 180 42" xmlns="http://www.w3.org/2000/svg"><title>logo</title><path d="M59.388 18.682h-3.137v-5.028h3.137v-1.146c0-8.315 6.821-9.41 10.357-9.41 1.295 0 2.14.149 2.14.149v5.377s-.547-.099-1.293-.099c-1.793 0-4.88.449-4.88 4.133v.996h5.427v5.028H65.71V38.65h-6.323V18.682zM77.661 3.297h6.274v26.489c0 2.788.947 3.486 2.59 3.486.497 0 .945-.05.945-.05v5.526s-.946.15-1.991.15c-3.485 0-7.818-.896-7.818-8.166V3.297zm14.49 35.353h6.324V13.254H92.15V38.65zm0-29.727h6.273V3.297h-6.273v5.626zm13.295 4.332h6.074v2.938c0 .946-.1 1.742-.1 1.742h.1c1.096-2.14 3.884-5.277 9.013-5.277 5.627 0 8.812 2.937 8.812 9.66v16.331h-6.273V23.611c0-3.086-.796-5.178-4.033-5.178-3.386 0-5.875 2.142-6.82 5.178-.35 1.046-.45 2.192-.45 3.386V38.65h-6.323V13.255zm41.476 20.664c3.287 0 6.374-2.39 6.374-8.017 0-3.934-2.09-7.817-6.324-7.817-3.485 0-6.372 2.838-6.372 7.867 0 4.83 2.588 7.967 6.322 7.967m-1.193-21.261c5.576 0 7.318 3.236 7.318 3.236h.1s-.05-.647-.05-1.444V3.297h6.323v35.352h-5.975v-2.09c0-.947.1-1.645.1-1.645h-.1s-2.14 4.333-7.966 4.333c-6.871 0-11.253-5.428-11.253-13.295 0-8.066 4.78-13.294 11.503-13.294m21.758 6.024h-3.286v-5.028h3.436v-7.32h6.174v7.32h5.776v5.028h-5.776v9.86c0 4.182 3.286 4.78 5.028 4.78.698 0 1.146-.1 1.146-.1v5.526s-.746.15-1.942.15c-3.535 0-10.556-1.046-10.556-9.56V18.682zM11.086 37.785l1.799-9.465 5.94-1.1 6.382 9.795a14.795 14.795 0 0 1-14.121.77zM3.279 20.418l7.268 7.268-1.672 8.795a14.867 14.867 0 0 1-1.857-1.57C3.101 30.993 1.856 25.4 3.28 20.418zM38.803 3.126c-.068 3.634-.549 11.086-3.093 18.527l-2.61-2.61.11-15.573a66.66 66.66 0 0 1 5.593-.344zM22.184 14.788l6.903-10.582-.218-.142c.655-.112 1.3-.213 1.925-.3l-.107 15.032-9.77 4.964 1.267-8.972zm-1.792-1.673L8.66 12.559c5.188-4.384 11.806-6.697 17.258-7.916l-5.526 8.472zM12.258 25.98L4.23 17.955c.543-1.1 1.23-2.145 2.063-3.107v.017l13.35.632-1.321 9.36-6.065 1.124zm14.894 9.594l-6.009-9.22 10.512-5.341 3.124 3.123c-1.597 3.901-3.82 7.68-6.913 10.774a14.5 14.5 0 0 1-.714.664zM41.204.726S18.074-.407 5.31 12.356c-6.7 6.7-6.7 17.563 0 24.263 6.7 6.7 17.563 6.7 24.263 0C42.337 23.856 41.204.726 41.204.726z" fill="#939BA2" fill-rule="evenodd"/></svg>